# Blender v2.77 (sub 0) OBJ File: ''
# www.blender.org
mtllib untitled.mtl
o hole_Plane
v -0.920140 -1.073582 0.027633
v -1.073046 0.920555 0.033935
v 1.073046 -0.920555 -0.033935
v 0.920140 1.073582 -0.027633
v 0.740848 -0.946059 -0.023674
v 0.408650 -0.971564 -0.013412
v 0.076453 -0.997068 -0.003151
v -0.255745 -1.022573 0.007111
v -0.587943 -1.048077 0.017372
v -0.945625 -0.741226 0.028684
v -0.971109 -0.408870 0.029734
v -0.996593 -0.076514 0.030784
v -1.022077 0.255843 0.031835
v -1.047562 0.588199 0.032885
v -0.740848 0.946059 0.023674
v -0.408650 0.971564 0.013412
v -0.076453 0.997068 0.003151
v 0.255745 1.022573 -0.007111
v 0.587943 1.048077 -0.017372
v 0.945625 0.741226 -0.028684
v 0.971109 0.408870 -0.029734
v 0.996593 0.076514 -0.030784
v 1.022077 -0.255843 -0.031835
v 1.047562 -0.588199 -0.032885
v -0.504275 -0.588367 0.015144
v -0.292432 -0.717711 0.008486
v 0.059255 -0.772775 -0.002442
v 0.398430 -0.664670 -0.012854
v 0.588073 -0.504502 -0.018598
v -0.664362 -0.398636 0.020248
v 0.717361 -0.292554 -0.022433
v -0.772407 -0.059302 0.023859
v 0.772407 0.059302 -0.023859
v -0.717361 0.292554 0.022433
v 0.664362 0.398636 -0.020248
v -0.588073 0.504502 0.018598
v -0.398429 0.664670 0.012854
v -0.059254 0.772775 0.002442
v 0.292432 0.717711 -0.008486
v 0.504275 0.588367 -0.015144
vn -0.0309 0.0008 -0.9995
usemtl None
s off
f 40//1 19//1 4//1 20//1
f 5//1 29//1 24//1 3//1
f 29//1 31//1 23//1 24//1
f 31//1 33//1 22//1 23//1
f 33//1 35//1 21//1 22//1
f 35//1 40//1 20//1 21//1
f 1//1 10//1 25//1 9//1
f 9//1 25//1 26//1 8//1
f 8//1 26//1 27//1 7//1
f 7//1 27//1 28//1 6//1
f 6//1 28//1 29//1 5//1
f 10//1 11//1 30//1 25//1
f 11//1 12//1 32//1 30//1
f 12//1 13//1 34//1 32//1
f 13//1 14//1 36//1 34//1
f 14//1 2//1 15//1 36//1
f 36//1 15//1 16//1 37//1
f 37//1 16//1 17//1 38//1
f 38//1 17//1 18//1 39//1
f 39//1 18//1 19//1 40//1
